<svg xmlns="http://www.w3.org/2000/svg" viewBox="0 0 80 80"><defs><style>.cls-1{fill:#0095a3;}</style></defs><title>contactAsset 23</title><g id="Layer_2" data-name="Layer 2"><g id="Layer_7" data-name="Layer 7"><path class="cls-1" d="M65,0H15A15,15,0,0,0,0,15V65A15,15,0,0,0,15,80H65A15,15,0,0,0,80,65V15A15,15,0,0,0,65,0ZM61.2,30.78a13.29,13.29,0,0,1,0,1.41c0,14.48-11,31.14-31.15,31.14a31.23,31.23,0,0,1-16.77-4.89,22.17,22.17,0,0,0,16.2-4.53A11,11,0,0,1,19.32,46.3a12.83,12.83,0,0,0,2,.21A9.18,9.18,0,0,0,24,46.09a11.13,11.13,0,0,1-9-10.72v-.11a13.11,13.11,0,0,0,5.21,1.35,10.75,10.75,0,0,1-4.74-9.11A11.06,11.06,0,0,1,17,22a31.08,31.08,0,0,0,22.6,11.46,10.36,10.36,0,0,1-.26-2.5A10.94,10.94,0,0,1,50.26,20a10.83,10.83,0,0,1,8,3.44,21.86,21.86,0,0,0,7-2.66,11.06,11.06,0,0,1-4.85,6.1,23.25,23.25,0,0,0,6.31-1.78A21.14,21.14,0,0,1,61.2,30.78Z"/><path class="cls-1" d="M0,0V80H80V0ZM61.2,30.78a13.29,13.29,0,0,1,0,1.41c0,14.48-11,31.14-31.15,31.14a31.23,31.23,0,0,1-16.77-4.89,22.17,22.17,0,0,0,16.2-4.53A11,11,0,0,1,19.32,46.3a12.83,12.83,0,0,0,2,.21A9.18,9.18,0,0,0,24,46.09a11.13,11.13,0,0,1-9-10.72v-.11a13.11,13.11,0,0,0,5.21,1.35,10.75,10.75,0,0,1-4.74-9.11A11.06,11.06,0,0,1,17,22a31.08,31.08,0,0,0,22.6,11.46,10.36,10.36,0,0,1-.26-2.5A10.94,10.94,0,0,1,50.26,20a10.83,10.83,0,0,1,8,3.44,21.86,21.86,0,0,0,7-2.66,11.06,11.06,0,0,1-4.85,6.1,23.25,23.25,0,0,0,6.31-1.78A21.14,21.14,0,0,1,61.2,30.78Z"/></g></g></svg>