<svg xmlns="http://www.w3.org/2000/svg" viewBox="0 0 80 80"><title>contactAsset 22</title><g id="Layer_2" data-name="Layer 2"><g id="Layer_7" data-name="Layer 7"><path d="M65,0H15A15,15,0,0,0,0,15V65A15,15,0,0,0,15,80H65A15,15,0,0,0,80,65V15A15,15,0,0,0,65,0ZM48.44,65.31c-1.36.26-1.82-.57-1.82-1.3,0-.89,0-3.75,0-7.29a6.49,6.49,0,0,0-1.82-5C50.78,51.09,57,48.85,57,38.59a10.2,10.2,0,0,0-2.76-7.13A9.67,9.67,0,0,0,54,24.38c-2.24-.68-7.34,2.75-7.34,2.75A23.9,23.9,0,0,0,40,26.25a23.78,23.78,0,0,0-6.66.88S28.23,23.7,26,24.38a9.73,9.73,0,0,0-.26,7.08A10.2,10.2,0,0,0,23,38.59c0,10.21,6.25,12.5,12.19,13.18a5.83,5.83,0,0,0-1.72,3.59c-1.51.68-5.42,1.88-7.76-2.24a5.55,5.55,0,0,0-4.06-2.76c-2.61,0-.21,1.67-.21,1.67,1.77.78,3,3.85,3,3.85,1.56,4.79,9,3.18,9,3.18,0,2.24,0,4.32,0,5s-.47,1.56-1.82,1.3a26.66,26.66,0,1,1,16.87,0Zm-15.21-8.8a.6.6,0,0,1-.52.52.53.53,0,0,1-.62-.31c-.06-.21.15-.42.46-.47S33.18,56.3,33.23,56.51Zm-2,.36c0,.21-.26.42-.57.42s-.58-.21-.58-.42a.48.48,0,0,1,.53-.41C30.94,56.46,31.2,56.66,31.2,56.87ZM29,56.72a.52.52,0,0,1-.67.2c-.32-.1-.52-.36-.47-.57a.52.52,0,0,1,.67-.21C28.86,56.25,29.07,56.51,29,56.72Zm-2-.89c-.15.16-.46.1-.72-.1a.59.59,0,0,1-.16-.68c.16-.16.47-.11.73.1A.59.59,0,0,1,27,55.83Zm-1.45-1.46c-.16.11-.42,0-.63-.26s-.16-.52,0-.62a.52.52,0,0,1,.63.21C25.73,54,25.73,54.27,25.58,54.37Zm-1-1.56c-.16.16-.42,0-.58-.1s-.21-.42-.05-.58.36-.05.52.16A.37.37,0,0,1,24.54,52.81Zm-1.1-1.2c0,.16-.26.16-.47.11s-.31-.26-.21-.42.26-.16.42-.1S23.49,51.51,23.44,51.61Z"/><path d="M0,0V80H80V0ZM40,13.33a26.68,26.68,0,0,1,8.44,52c-1.36.26-1.82-.57-1.82-1.3,0-.89,0-3.75,0-7.29a6.49,6.49,0,0,0-1.82-5C50.78,51.09,57,48.85,57,38.59a10.2,10.2,0,0,0-2.76-7.13A9.67,9.67,0,0,0,54,24.38c-2.24-.68-7.34,2.75-7.34,2.75A23.9,23.9,0,0,0,40,26.25a23.78,23.78,0,0,0-6.66.88S28.23,23.7,26,24.38a9.73,9.73,0,0,0-.26,7.08A10.2,10.2,0,0,0,23,38.59c0,10.21,6.25,12.5,12.19,13.18a5.83,5.83,0,0,0-1.72,3.59c-1.51.68-5.42,1.88-7.76-2.24a5.55,5.55,0,0,0-4.06-2.76c-2.61,0-.21,1.67-.21,1.67,1.77.78,3,3.85,3,3.85,1.56,4.79,9,3.18,9,3.18,0,2.24,0,4.32,0,5s-.47,1.56-1.82,1.3a26.68,26.68,0,0,1,8.43-52ZM33.23,56.51a.6.6,0,0,1-.52.52.53.53,0,0,1-.62-.31c-.06-.21.15-.42.46-.47S33.18,56.3,33.23,56.51Zm-2,.36c0,.21-.26.42-.57.42s-.58-.21-.58-.42a.48.48,0,0,1,.53-.41C30.94,56.46,31.2,56.66,31.2,56.87ZM29,56.72a.52.52,0,0,1-.67.2c-.32-.1-.52-.36-.47-.57a.52.52,0,0,1,.67-.21C28.86,56.25,29.07,56.51,29,56.72Zm-2-.89c-.15.16-.46.1-.72-.1a.59.59,0,0,1-.16-.68c.16-.16.47-.11.73.1A.59.59,0,0,1,27,55.83Zm-1.45-1.46c-.16.11-.42,0-.63-.26s-.16-.52,0-.62a.52.52,0,0,1,.63.21C25.73,54,25.73,54.27,25.58,54.37Zm-1-1.56c-.16.16-.42,0-.58-.1s-.21-.42-.05-.58.36-.05.52.16A.37.37,0,0,1,24.54,52.81Zm-1.1-1.2c0,.16-.26.16-.47.11s-.31-.26-.21-.42.26-.16.42-.1S23.49,51.51,23.44,51.61Z"/></g></g></svg>