<svg xmlns="http://www.w3.org/2000/svg" viewBox="0 0 80 80"><defs><style>.cls-1{fill:#ff7d00;}</style></defs><title>contactAsset 24</title><g id="Layer_2" data-name="Layer 2"><g id="Layer_7" data-name="Layer 7"><path class="cls-1" d="M65,0H15A15,15,0,0,0,0,15V65A15,15,0,0,0,15,80H65A15,15,0,0,0,80,65V15A15,15,0,0,0,65,0Zm1.17,15.54L58.69,60.45A1.86,1.86,0,0,1,56.84,62a2.23,2.23,0,0,1-.7-.14l-13.25-5.4-7.08,8.61a1.82,1.82,0,0,1-1.43.68,1.66,1.66,0,0,1-.65-.12,1.85,1.85,0,0,1-1.22-1.75V53.68l25.27-31L26.51,49.76,15,45a1.83,1.83,0,0,1-1.17-1.61,1.9,1.9,0,0,1,.93-1.73L63.38,13.61a1.91,1.91,0,0,1,.94-.26,1.86,1.86,0,0,1,1.84,2.19Z"/><path class="cls-1" d="M0,0V80H80V0ZM58.69,60.45A1.86,1.86,0,0,1,56.84,62a2.23,2.23,0,0,1-.7-.14l-13.25-5.4-7.08,8.61a1.82,1.82,0,0,1-1.43.68,1.66,1.66,0,0,1-.65-.12,1.85,1.85,0,0,1-1.22-1.75V53.68l25.27-31L26.51,49.76,15,45a1.83,1.83,0,0,1-1.17-1.61,1.9,1.9,0,0,1,.93-1.73L63.38,13.61a1.91,1.91,0,0,1,.94-.26,1.86,1.86,0,0,1,1.84,2.19Z"/></g></g></svg>