<svg xmlns="http://www.w3.org/2000/svg" viewBox="0 0 116.75 101.11"><defs><style>.cls-1{fill:#ff7d00;}.cls-2{fill:#fff;}.cls-3{fill:#0095a3;}.cls-4{fill:#fe9f97;}</style></defs><title>eyeAsset 20</title><g id="Layer_2" data-name="Layer 2"><g id="Layer_6" data-name="Layer 6"><polygon class="cls-1" points="58.38 4 113.29 99.11 3.46 99.11 58.38 4"/><path d="M116.75,101.11H0L58.38,0Zm-109.83-4h102.9L58.38,8Z"/><path class="cls-2" d="M58.91,56.39c8.85,0,21.73,10,21.73,10s-9,10-21.73,10"/><path class="cls-2" d="M58.91,56.39c-8.85,0-21.73,10-21.73,10s9,10,21.73,10"/><circle class="cls-2" cx="58.91" cy="66.39" r="10"/><path class="cls-3" d="M58.91,78.2A11.82,11.82,0,1,1,70.72,66.39,11.83,11.83,0,0,1,58.91,78.2Zm0-20a8.18,8.18,0,1,0,8.18,8.18A8.19,8.19,0,0,0,58.91,58.2Z"/><path d="M58.91,78.2V74.57c8.92,0,16-5.36,18.92-8C74.14,64,65.23,58.2,58.91,58.2V54.57c9.36,0,22.3,10,22.84,10.38l1.55,1.2L82,67.61C81.59,68,72.25,78.2,58.91,78.2Z"/><path d="M58.91,78.2C45.56,78.2,36.22,68,35.83,67.61l-1.31-1.45L36.06,65c.55-.42,13.48-10.38,22.84-10.38V58.2C52.58,58.2,43.67,64,40,66.58c2.94,2.62,10,8,18.92,8Z"/><circle class="cls-4" cx="58.91" cy="66.39" r="6.16"/><circle cx="58.91" cy="66.39" r="3.6"/><path d="M52.16,59c-.23-.12-5.71-2.92-5.71-7.64h3.63c0,2.06,2.68,3.87,3.71,4.4Z"/><path d="M45.41,62c-.23-.12-5.71-2.92-5.71-7.64h3.63c0,2.06,2.68,3.87,3.71,4.4Z"/><path d="M39.17,65.56c-.23-.12-5.71-2.92-5.71-7.64h3.63c0,2.06,2.68,3.87,3.71,4.4Z"/><path class="cls-2" d="M60.64,64.52l-1.73,1.73V63.94A2.88,2.88,0,0,1,60.64,64.52Z"/></g></g></svg>