<svg id="Layer_1" data-name="Layer 1" xmlns="http://www.w3.org/2000/svg" viewBox="0 0 253.04 119.07"><defs><style>.cls-1{opacity:0.77;}.cls-2{fill:#eded2f;}.cls-3{opacity:0.6;}.cls-4{fill:#55b6da;}.cls-5{opacity:0.71;}.cls-6{fill:#ec008c;}</style></defs><title>chirp</title><g class="cls-1"><path class="cls-2" d="M42.38,99,32,82,22.85,99H5L23.58,69.29,7,44.19H25.26l7.24,14,7.77-14H57.6L41,69.81,59.6,99Z" transform="translate(-5 -2.72)"/><path class="cls-2" d="M112.1,86.09c-6.19,10.81-16,14.7-24.36,14.7-12.81,0-27.19-8.19-27.19-28.77,0-21.94,15.12-29.4,27.51-29.4,4.94,0,15.75,1.05,23.41,13.23l-12,6.82C98,59.63,95.09,55,88.79,55c-8.61,0-11.65,9.87-11.65,16.48C77.13,78.42,80.39,88,89.31,88c6.3,0,9.45-4.73,10.6-8.19Z" transform="translate(-5 -2.72)"/><path class="cls-2" d="M145.7,99h-16.9L110.94,44.19h17.11l9.76,37.17,9-37.17h16.59Z" transform="translate(-5 -2.72)"/><path class="cls-2" d="M192.95,55.32V99H176.88V55.32h-8.61V45.45h8.61V37.58c0-9.45,7-13.86,16.48-13.86a72,72,0,0,1,9.66.94V36.84h-2.94c-6.72,0-7.24,1.36-7.24,5.35v3.25h10.81v9.87Z" transform="translate(-5 -2.72)"/><path class="cls-2" d="M243.35,99V93.85c-6,6.09-11.65,6.61-14.59,6.61C215.84,100.47,205,90.5,205,72c0-16.27,8-29.29,22.89-29.29a22.16,22.16,0,0,1,14.49,5.56V24.87H258V99ZM231.8,88.5c10.5,0,10.92-13.86,10.92-16.48,0-6.82-1.26-17.22-10.08-17.22-8.61,0-11.23,9.34-11.23,17.11C221.4,76.74,222.45,88.5,231.8,88.5Z" transform="translate(-5 -2.72)"/></g><g class="cls-3"><path class="cls-4" d="M42.38,78,32,61,22.85,78H5L23.58,48.29,7,23.19H25.26l7.24,14,7.77-14H57.6L41,48.81,59.6,78Z" transform="translate(-5 -2.72)"/><path class="cls-4" d="M112.1,65.09c-6.19,10.81-16,14.7-24.36,14.7C74.93,79.79,60.54,71.6,60.54,51c0-21.94,15.12-29.4,27.51-29.4,4.94,0,15.75,1.05,23.41,13.23l-12,6.82C98,38.63,95.09,34,88.79,34c-8.61,0-11.65,9.87-11.65,16.48C77.13,57.42,80.39,67,89.31,67c6.3,0,9.45-4.73,10.6-8.19Z" transform="translate(-5 -2.72)"/><path class="cls-4" d="M145.7,78h-16.9L110.94,23.19h17.11l9.76,37.17,9-37.17h16.59Z" transform="translate(-5 -2.72)"/><path class="cls-4" d="M192.95,34.32V78H176.88V34.32h-8.61V24.45h8.61V16.58c0-9.45,7-13.86,16.48-13.86a72,72,0,0,1,9.66.94V15.84h-2.94c-6.72,0-7.24,1.36-7.24,5.35v3.25h10.81v9.87Z" transform="translate(-5 -2.72)"/><path class="cls-4" d="M243.35,78V72.85c-6,6.09-11.65,6.61-14.59,6.61C215.84,79.47,205,69.5,205,51c0-16.27,8-29.29,22.89-29.29a22.16,22.16,0,0,1,14.49,5.56V3.87H258V78ZM231.8,67.5c10.5,0,10.92-13.86,10.92-16.48,0-6.82-1.26-17.22-10.08-17.22-8.61,0-11.23,9.34-11.23,17.11C221.4,55.74,222.45,67.5,231.8,67.5Z" transform="translate(-5 -2.72)"/></g><g class="cls-5"><path class="cls-6" d="M42.38,120,32,103l-9.13,17H5L23.58,90.29,7,65.19H25.26l7.24,14,7.77-14H57.6L41,90.81,59.6,120Z" transform="translate(-5 -2.72)"/><path class="cls-6" d="M112.1,107.09c-6.19,10.81-16,14.7-24.36,14.7-12.81,0-27.19-8.19-27.19-28.77,0-21.94,15.12-29.4,27.51-29.4,4.94,0,15.75,1.05,23.41,13.23l-12,6.82C98,80.63,95.09,76,88.79,76c-8.61,0-11.65,9.87-11.65,16.48,0,6.93,3.25,16.48,12.18,16.48,6.3,0,9.45-4.73,10.6-8.19Z" transform="translate(-5 -2.72)"/><path class="cls-6" d="M145.7,120h-16.9L110.94,65.19h17.11l9.76,37.17,9-37.17h16.59Z" transform="translate(-5 -2.72)"/><path class="cls-6" d="M192.95,76.32V120H176.88V76.32h-8.61V66.45h8.61V58.58c0-9.45,7-13.86,16.48-13.86a72,72,0,0,1,9.66.94V57.84h-2.94c-6.72,0-7.24,1.36-7.24,5.35v3.25h10.81v9.87Z" transform="translate(-5 -2.72)"/><path class="cls-6" d="M243.35,120v-5.14c-6,6.09-11.65,6.61-14.59,6.61-12.91,0-23.73-10-23.73-28.45,0-16.27,8-29.29,22.89-29.29a22.16,22.16,0,0,1,14.49,5.56V45.87H258V120ZM231.8,109.5c10.5,0,10.92-13.86,10.92-16.48,0-6.82-1.26-17.22-10.08-17.22-8.61,0-11.23,9.34-11.23,17.11C221.4,97.74,222.45,109.5,231.8,109.5Z" transform="translate(-5 -2.72)"/></g></svg>
