<svg xmlns="http://www.w3.org/2000/svg" viewBox="0 0 32.81 8.66"><title>navAsset 3</title><g id="Layer_2" data-name="Layer 2"><g id="Layer_1-2" data-name="Layer 1"><path d="M4.5,10.24V9.67a3,3,0,0,1-1.92.73A1.89,1.89,0,0,1,.53,8.5,2,2,0,0,1,1.85,6.7a14.88,14.88,0,0,1,2.47-.58V5.77A.66.66,0,0,0,3.61,5c-.78,0-.92.46-1,.73H.79c0-1.38,1.27-1.94,2.64-1.94,1.08,0,2.7.29,2.7,1.8V9.26a1.52,1.52,0,0,0,.18,1ZM3.13,7.63c-.64.2-.79.5-.79.78A.67.67,0,0,0,3,9,1.39,1.39,0,0,0,4.32,7.51V7.24Z" transform="translate(-0.53 -1.77)"/><path d="M9.62,1.77V4.55a2.06,2.06,0,0,1,1.79-.76c1.5,0,2.67,1.14,2.67,3.19,0,1.61-.71,3.42-2.73,3.42a2.25,2.25,0,0,1-1.82-.83v.66H7.82V1.77ZM11,5.14c-.78,0-1.45.47-1.45,1.92,0,1,.28,2,1.38,2s1.33-1.45,1.33-2S12.18,5.14,11,5.14Z" transform="translate(-0.53 -1.77)"/><path d="M18.24,10.43a3.12,3.12,0,0,1-3.36-3.36,3.11,3.11,0,0,1,3.3-3.29,3.13,3.13,0,0,1,3.43,3.32A3.11,3.11,0,0,1,18.24,10.43Zm-.07-5.18c-.7,0-1.43.53-1.43,1.83,0,1,.44,1.87,1.52,1.87s1.48-.85,1.48-1.79C19.74,5.83,19.17,5.25,18.17,5.25Z" transform="translate(-0.53 -1.77)"/><path d="M26.55,10.24V9.65a2.3,2.3,0,0,1-1.82.77c-1.38,0-2-.7-2-2.24V4h1.86V8a.81.81,0,0,0,.89.92,1,1,0,0,0,1.06-1V4H28.4v6.26Z" transform="translate(-0.53 -1.77)"/><path d="M32.11,5.26v3c0,.42.19.52.48.52h.65v1.43a5.77,5.77,0,0,1-1.16.1c-1,0-1.79-.31-1.79-1.77V5.25h-.91V4.12h.91v-2h1.82v2h1.22V5.26Z" transform="translate(-0.53 -1.77)"/></g></g></svg>