<svg xmlns="http://www.w3.org/2000/svg" viewBox="0 0 42.62 8.28"><title>navAsset 6</title><g id="Layer_2" data-name="Layer 2"><g id="Layer_1-2" data-name="Layer 1"><path d="M6.28,8.76A3.16,3.16,0,0,1,3.5,10.44,3,3,0,0,1,.4,7.15,3,3,0,0,1,3.54,3.8,3,3,0,0,1,6.21,5.31l-1.37.78a1.35,1.35,0,0,0-1.22-.88c-1,0-1.33,1.13-1.33,1.88S2.66,9,3.68,9A1.28,1.28,0,0,0,4.89,8Z" transform="translate(-0.4 -2.16)"/><path d="M10.21,10.43A3.12,3.12,0,0,1,6.85,7.07a3.11,3.11,0,0,1,3.3-3.29,3.13,3.13,0,0,1,3.43,3.32A3.11,3.11,0,0,1,10.21,10.43Zm-.07-5.18c-.7,0-1.43.53-1.43,1.83,0,1,.44,1.87,1.52,1.87s1.48-.85,1.48-1.79C11.71,5.83,11.15,5.25,10.14,5.25Z" transform="translate(-0.4 -2.16)"/><path d="M18.54,10.24V6.37c0-.59-.17-1.08-.91-1.08s-1,.6-1,1.44v3.5H14.81V4h1.87v.55a2.25,2.25,0,0,1,1.76-.71,1.72,1.72,0,0,1,1.94,1.92v4.5Z" transform="translate(-0.4 -2.16)"/><path d="M24.08,5.26v3c0,.42.19.52.48.52h.65v1.43a5.77,5.77,0,0,1-1.16.1c-1,0-1.79-.31-1.79-1.77V5.25h-.91V4.12h.91v-2h1.82v2h1.22V5.26Z" transform="translate(-0.4 -2.16)"/><path d="M30,10.24V9.67A3,3,0,0,1,28,10.4,1.89,1.89,0,0,1,26,8.5a2,2,0,0,1,1.32-1.8,14.88,14.88,0,0,1,2.47-.58V5.77A.66.66,0,0,0,29.07,5c-.78,0-.92.46-1,.73H26.25c0-1.38,1.27-1.94,2.64-1.94,1.08,0,2.7.29,2.7,1.8V9.26a1.52,1.52,0,0,0,.18,1Zm-1.37-2.6c-.64.2-.79.5-.79.78a.67.67,0,0,0,.71.64,1.39,1.39,0,0,0,1.27-1.54V7.24Z" transform="translate(-0.4 -2.16)"/><path d="M38.74,8.76A3.16,3.16,0,0,1,36,10.44a3,3,0,0,1-3.11-3.29,3.14,3.14,0,0,1,5.82-1.85l-1.37.78a1.35,1.35,0,0,0-1.22-.88c-1,0-1.33,1.13-1.33,1.88S35.12,9,36.14,9A1.28,1.28,0,0,0,37.35,8Z" transform="translate(-0.4 -2.16)"/><path d="M41.79,5.26v3c0,.42.19.52.48.52h.65v1.43a5.77,5.77,0,0,1-1.16.1c-1,0-1.79-.31-1.79-1.77V5.25h-.91V4.12H40v-2h1.82v2H43V5.26Z" transform="translate(-0.4 -2.16)"/></g></g></svg>