<svg xmlns="http://www.w3.org/2000/svg" viewBox="0 0 28.64 8.66"><title>navAsset 5</title><g id="Layer_2" data-name="Layer 2"><g id="Layer_1-2" data-name="Layer 1"><path d="M7.6,10.24h-2L4.68,6.06l-.94,4.17h-2L0,4H1.94l.88,4.38L3.77,4h2L6.6,8.39,7.57,4H9.47Z" transform="translate(0 -1.77)"/><path d="M13.25,10.43A3.12,3.12,0,0,1,9.89,7.07a3.11,3.11,0,0,1,3.3-3.29,3.13,3.13,0,0,1,3.43,3.32A3.11,3.11,0,0,1,13.25,10.43Zm-.07-5.18c-.7,0-1.43.53-1.43,1.83,0,1,.44,1.87,1.52,1.87s1.48-.85,1.48-1.79C14.75,5.83,14.18,5.25,13.17,5.25Z" transform="translate(0 -1.77)"/><path d="M19.59,4v.65a2.31,2.31,0,0,1,.73-.47,3.18,3.18,0,0,1,1.08-.25V5.53l-.61.1c-1,.16-1.15.41-1.15,1.08v3.53H17.81V4Z" transform="translate(0 -1.77)"/><path d="M26.51,10.24,24.9,7.54l-.79.76v1.94h-1.8V1.77h1.81V6.12l2-2.15h2.22L26.21,6.21l2.44,4Z" transform="translate(0 -1.77)"/></g></g></svg>