<svg id="Layer_1" data-name="Layer 1" xmlns="http://www.w3.org/2000/svg" viewBox="0 0 517.31 160.09">
  <defs>
    <style>
      .cls-1 {
        fill: #ff7d12;
      }
    </style>
  </defs>
  <title>portfolio-header</title>
  <g>
    <circle class="cls-1" cx="36.3" cy="36.3" r="36.3"/>
    <path class="cls-1" d="M197.73,2.15l32.44,56.19a35.34,35.34,0,0,1-12,11.36A36.3,36.3,0,0,1,181.86,6.86,35.61,35.61,0,0,1,197.73,2.15Z" transform="translate(-2.41 -2.05)"/>
    <path d="M258.65,8.51l50.56,50.56A37.36,37.36,0,0,1,305.06,64a36.3,36.3,0,1,1-51.31-51.36A37,37,0,0,1,258.65,8.51Z" transform="translate(-2.41 -2.05)"/>
    <path class="cls-1" d="M325.58,23.56l62.54,36.11a36.3,36.3,0,0,1-62.54-36.11Z" transform="translate(-2.41 -2.05)"/>
    <path class="cls-1" d="M138.9,7.39l13,48.35c-5,8.52-12.36,15-22.36,17.66A36.3,36.3,0,0,1,110.68,3.28C120.67.6,130.34,2.5,138.9,7.39Z" transform="translate(-2.41 -2.05)"/>
    <g>
      <path d="M74.06,160H55.18l-8.7-39.33L37.67,160H18.57L2.41,101H20.72L29,142.26,37.89,101H56.43l8.14,41.59L73.72,101h18Z" transform="translate(-2.41 -2.05)"/>
      <path d="M99.7,93.67V80.22H117V93.67Zm0,66.33V101H117v59Z" transform="translate(-2.41 -2.05)"/>
      <path d="M132.7,160V80.22H150V160Z" transform="translate(-2.41 -2.05)"/>
      <path d="M205,160l-15.14-25.43-7.46,7.12V160h-17V80.22h17.06v41L201.63,101h20.91l-20.34,21,22.94,38Z" transform="translate(-2.41 -2.05)"/>
      <path d="M242.87,134.12v.68c0,7.91,5.42,14,13.45,14a15.77,15.77,0,0,0,14.92-10.51l13.11,6.78c-6.67,11.19-17.18,17.06-29.38,17.06-18,0-29.83-11.41-29.83-30.51,0-14.8,7.23-32.43,30.29-32.43,22.15,0,29.61,17.74,29.61,34.13v.79Zm24.18-10.85c-.23-6.55-4.63-11.64-11.75-11.64-8.25,0-11.64,6.89-12.43,11.64Z" transform="translate(-2.41 -2.05)"/>
      <path d="M311.8,101v6.1a21.77,21.77,0,0,1,6.89-4.41,29.92,29.92,0,0,1,10.17-2.37V115.7l-5.76.9c-9.15,1.47-10.85,3.84-10.85,10.17V160H295V101Z" transform="translate(-2.41 -2.05)"/>
      <path d="M374.18,117.85c-3.84-3.16-9.49-5.88-15-5.88-3.73,0-8.14,1.24-8.14,4.52,0,2.82,2.71,3.73,9.61,5.08l4.18.79c12.77,2.37,21.25,7.57,21.25,18.53,0,14.69-15.6,20.57-27.91,20.57-14.69,0-24.3-6.78-28.59-11.41l11-9.94c4.29,4.52,10.85,8.14,17.18,8.14,5.76,0,10.51-2,10.51-5.76,0-3.28-3.05-4.18-9.38-5.2l-5.31-.9c-14-2.37-19.78-8.48-19.78-17.52,0-10.06,8.36-19.78,25-19.78a43.06,43.06,0,0,1,26.22,8.81Z" transform="translate(-2.41 -2.05)"/>
      <path d="M423.9,161.81c-15.37,0-31.64-8.36-31.64-31.64,0-14.92,9-31,31.08-31,24.75,0,32.32,17.18,32.32,31.3C455.65,149.6,443.67,161.81,423.9,161.81ZM423.22,113c-6.55,0-13.45,5-13.45,17.29,0,9.83,4.18,17.63,14.35,17.63,9.61,0,13.9-8,13.9-16.84C438,118.53,432.71,113,423.22,113Z" transform="translate(-2.41 -2.05)"/>
      <path d="M502.32,160V123.61c0-5.54-1.58-10.17-8.59-10.17-8,0-9.15,5.65-9.15,13.56v33h-17.4V101H484.8v5.2c2.83-3.39,8.36-6.67,16.61-6.67,12,0,18.31,6.1,18.31,18.08V160Z" transform="translate(-2.41 -2.05)"/>
    </g>
  </g>
</svg>
