<svg xmlns="http://www.w3.org/2000/svg" viewBox="0 0 200 200"><defs><style>.cls-1{isolation:isolate;}.cls-2{fill:#0095a3;}.cls-3{fill:#ff7d00;}.cls-4{fill:#fe9f97;}.cls-5{fill:#eae400;}.cls-6{opacity:0.26;mix-blend-mode:color-dodge;}</style></defs><title>square02Asset 11</title><g class="cls-1"><g id="Layer_2" data-name="Layer 2"><g id="Layer_4" data-name="Layer 4"><polygon class="cls-2" points="200 50 50 50 25 25 0 0 200 0 200 50"/><polygon class="cls-3" points="150 200 150 150 150 50 175 25 200 0 200 200 150 200"/><polygon points="200 200 0 200 0 150 150 150 175 175 200 200"/><polygon class="cls-4" points="0 200 0 0 50 50 50 150 25 175 0 200"/><path class="cls-5" d="M50,150"/><rect class="cls-6" x="150" width="50" height="50" transform="translate(200 -150) rotate(90)"/><polygon class="cls-2" points="50 150 50 150 100 100 150 150 50 150"/><polygon points="150 50 150 50 100 100 50 50 150 50"/><polygon class="cls-4" points="150 150 150 150 100 100 150 50 150 150"/><polygon class="cls-3" points="50 50 50 50 100 100 50 150 50 50"/></g></g></g></svg>