<svg id="Layer_1" data-name="Layer 1" xmlns="http://www.w3.org/2000/svg" viewBox="0 0 307.56 24.65">
  <title>theselectedworks</title>
  <g>
    <path d="M8.13,14.89v8.5c0,1.19.54,1.46,1.36,1.46l1.84,0v4a16.28,16.28,0,0,1-3.3.27c-2.86,0-5.07-.88-5.07-5V14.86H.37v-3.2H3V6.12H8.13V11.7h3.47v3.2Z" transform="translate(-0.37 -5)"/>
    <path d="M25.09,29V19.42c0-1.84-.1-4.18-2.69-4.18-2.18,0-2.82,1.63-2.82,4.42V29H14.35V5h5.24v8.16a6.7,6.7,0,0,1,5.07-2.38c3.67,0,5.64,2.31,5.64,6.09V29Z" transform="translate(-0.37 -5)"/>
    <path d="M39,21.22v.2a4,4,0,0,0,4,4.22,4.74,4.74,0,0,0,4.49-3.16l3.94,2a10,10,0,0,1-8.84,5.13c-5.41,0-9-3.43-9-9.18,0-4.45,2.18-9.76,9.11-9.76,6.66,0,8.91,5.34,8.91,10.27v.24ZM46.27,18a3.42,3.42,0,0,0-3.54-3.5A3.86,3.86,0,0,0,39,18Z" transform="translate(-0.37 -5)"/>
    <path d="M75.68,16.32a7.53,7.53,0,0,0-4.52-1.77c-1.12,0-2.45.37-2.45,1.36s.82,1.12,2.89,1.53l1.26.24c3.84.71,6.39,2.28,6.39,5.58,0,4.42-4.69,6.19-8.4,6.19A11.71,11.71,0,0,1,62.25,26l3.3-3a7.59,7.59,0,0,0,5.17,2.45c1.73,0,3.16-.61,3.16-1.73s-.92-1.26-2.82-1.56l-1.6-.27c-4.22-.71-5.95-2.55-5.95-5.27,0-3,2.52-5.95,7.51-5.95a13,13,0,0,1,7.89,2.65Z" transform="translate(-0.37 -5)"/>
    <path d="M86.46,21.22v.2a4,4,0,0,0,4,4.22A4.74,4.74,0,0,0,95,22.47l3.94,2a10,10,0,0,1-8.84,5.13c-5.41,0-9-3.43-9-9.18,0-4.45,2.18-9.76,9.11-9.76,6.66,0,8.91,5.34,8.91,10.27v.24ZM93.74,18a3.42,3.42,0,0,0-3.54-3.5A3.86,3.86,0,0,0,86.46,18Z" transform="translate(-0.37 -5)"/>
    <path d="M102.2,29V5h5.2V29Z" transform="translate(-0.37 -5)"/>
    <path d="M116.21,21.22v.2a4,4,0,0,0,4,4.22,4.74,4.74,0,0,0,4.49-3.16l3.94,2a10,10,0,0,1-8.84,5.13c-5.41,0-9-3.43-9-9.18,0-4.45,2.18-9.76,9.11-9.76,6.66,0,8.91,5.34,8.91,10.27v.24ZM123.48,18a3.42,3.42,0,0,0-3.54-3.5,3.86,3.86,0,0,0-3.74,3.5Z" transform="translate(-0.37 -5)"/>
    <path d="M147.42,24.82a9,9,0,0,1-7.89,4.76c-4.15,0-8.8-2.65-8.8-9.32,0-7.1,4.9-9.52,8.91-9.52A8.59,8.59,0,0,1,147.22,15l-3.88,2.21a3.82,3.82,0,0,0-3.47-2.48c-2.79,0-3.77,3.2-3.77,5.34s1.05,5.34,3.94,5.34a3.62,3.62,0,0,0,3.43-2.65Z" transform="translate(-0.37 -5)"/>
    <path d="M156.06,14.89v8.5c0,1.19.54,1.46,1.36,1.46l1.84,0v4a16.29,16.29,0,0,1-3.3.27c-2.86,0-5.07-.88-5.07-5V14.86h-2.58v-3.2h2.58V6.12h5.17V11.7h3.47v3.2Z" transform="translate(-0.37 -5)"/>
    <path d="M166.39,21.22v.2a4,4,0,0,0,4,4.22,4.74,4.74,0,0,0,4.49-3.16l3.94,2A10,10,0,0,1,170,29.65c-5.41,0-9-3.43-9-9.18,0-4.45,2.18-9.76,9.11-9.76,6.66,0,8.91,5.34,8.91,10.27v.24ZM173.67,18a3.42,3.42,0,0,0-3.54-3.5,3.86,3.86,0,0,0-3.74,3.5Z" transform="translate(-0.37 -5)"/>
    <path d="M193.25,29V27.34a6.36,6.36,0,0,1-4.73,2.14c-4.18,0-7.68-3.23-7.68-9.21,0-5.27,2.58-9.48,7.41-9.48a7.18,7.18,0,0,1,4.69,1.8V5H198V29Zm-3.74-3.4c3.4,0,3.54-4.49,3.54-5.34,0-2.21-.41-5.58-3.26-5.58s-3.64,3-3.64,5.54C186.15,21.79,186.49,25.6,189.51,25.6Z" transform="translate(-0.37 -5)"/>
    <path d="M231.81,29h-5.68l-2.62-11.83L220.86,29h-5.75l-4.86-17.75h5.51l2.48,12.41,2.69-12.41h5.58l2.45,12.51,2.75-12.51h5.41Z" transform="translate(-0.37 -5)"/>
    <path d="M247.79,29.55c-4.62,0-9.52-2.52-9.52-9.52,0-4.49,2.72-9.31,9.35-9.31,7.45,0,9.72,5.17,9.72,9.42C257.34,25.87,253.74,29.55,247.79,29.55Zm-.2-14.69c-2,0-4,1.5-4,5.2,0,3,1.26,5.3,4.32,5.3,2.89,0,4.18-2.41,4.18-5.07C252,16.53,250.44,14.86,247.58,14.86Z" transform="translate(-0.37 -5)"/>
    <path d="M265.77,11.26v1.84a6.55,6.55,0,0,1,2.07-1.33,9,9,0,0,1,3.06-.71v4.62l-1.73.27c-2.75.44-3.26,1.16-3.26,3.06V29h-5.2V11.26Z" transform="translate(-0.37 -5)"/>
    <path d="M285.36,29l-4.56-7.65-2.24,2.14V29h-5.1V5h5.13V17.34l5.75-6.09h6.29l-6.12,6.32L291.41,29Z" transform="translate(-0.37 -5)"/>
    <path d="M304.36,16.32a7.52,7.52,0,0,0-4.52-1.77c-1.12,0-2.45.37-2.45,1.36s.82,1.12,2.89,1.53l1.26.24c3.84.71,6.39,2.28,6.39,5.58,0,4.42-4.69,6.19-8.4,6.19a11.71,11.71,0,0,1-8.6-3.43l3.3-3a7.59,7.59,0,0,0,5.17,2.45c1.73,0,3.16-.61,3.16-1.73s-.92-1.26-2.82-1.56l-1.6-.27c-4.22-.71-6-2.55-6-5.27,0-3,2.52-5.95,7.51-5.95a13,13,0,0,1,7.89,2.65Z" transform="translate(-0.37 -5)"/>
  </g>
</svg>
